# xmcd
#
# Track frame offsets: 
#        150
#        12547
#        27822
#        43515
#        61720
#        78230
#        96167
#        114030
#        132667
#        145800
#        156900
#        170557
#        184272
#        196837
#        210805
#        223572
#        238030
#        250162
#        264047
#        277862
#        289847
#        306192
#        320552
#
# Disc length: 4468 seconds
#
# Revision: 0
# Processed by: cddbd v1.5.2PL0 Copyright (c) Steve Scherf et al.
# Submitted via: ExactAudioCopy v0.99pb4
#
DISCID=3a117217
DTITLE=Gary Stuart - Cactus and a Rose - Collector's Series
DYEAR=2010
DGENRE=Country
TTITLE0=Okeechobee Purple
TTITLE1=Cactus and a Rose
TTITLE2=Staring Each Other Down
TTITLE3=Lover's Knot
TTITLE4=Ghost Train
TTITLE5=Roarin'
TTITLE6=Harlan County Highway
TTITLE7=Are We Dreamin' The Same Dream
TTITLE8=How Could We Come To This After That
TTITLE9=We Just Couldn't Make It As Friends
TTITLE10=Drinkin' Thing
TTITLE11=Out Of Hand
TTITLE12=Flat Ntural Born Good-Timin' Man
TTITLE13=Back Sliders Wine
TTITLE14=She's Actin' Single (I'm Drinkin' Doubles)
TTITLE15=In Some Room Above The Street
TTITLE16=I See The Want To In Your Eyes
TTITLE17=Your Place Or Mine
TTITLE18=Littel Junior
TTITLE19=Honky-Tonkin'
TTITLE20=Drinking Again
TTITLE21=Whiskey Trip
TTITLE22=Single Again
EXTD=
EXTT0=
EXTT1=
EXTT2=
EXTT3=
EXTT4=
EXTT5=
EXTT6=
EXTT7=
EXTT8=
EXTT9=
EXTT10=
EXTT11=
EXTT12=
EXTT13=
EXTT14=
EXTT15=
EXTT16=
EXTT17=
EXTT18=
EXTT19=
EXTT20=
EXTT21=
EXTT22=
PLAYORDER=
